<svg width="24" height="24" viewBox="0 0 24 24" fill="none" xmlns="http://www.w3.org/2000/svg">
  <path d="M6 9.2L9.6 12.8C10.3 13.5 11.4 13.5 12.1 12.8L15.7 9.2" stroke="#B0B0B0" stroke-width="1.8" stroke-linecap="round" stroke-linejoin="round"/>
  <path d="M8.4 7L10.7 9.3C11.4 10 12.6 10 13.3 9.3L15.6 7" stroke="#B0B0B0" stroke-width="1.8" stroke-linecap="round" stroke-linejoin="round"/>
  <path d="M6 9.2V7.4C6 6.3 6.9 5.4 8 5.4H8.4C9.1 5.4 9.9 5.7 10.4 6.2L12 7.8" stroke="#B0B0B0" stroke-width="1.8" stroke-linecap="round" stroke-linejoin="round"/>
  <path d="M18 9.2V7.4C18 6.3 17.1 5.4 16 5.4H15.6C14.9 5.4 14.1 5.7 13.6 6.2L12 7.8" stroke="#B0B0B0" stroke-width="1.8" stroke-linecap="round" stroke-linejoin="round"/>
  <path d="M8.7 12.5L10.4 14.2C11.1 14.9 12.2 14.9 12.9 14.2L14.6 12.5" stroke="#B0B0B0" stroke-width="1.8" stroke-linecap="round" stroke-linejoin="round"/>
  <path d="M9.9 15.7L11 16.8C11.6 17.4 12.6 17.4 13.2 16.8L14.3 15.7" stroke="#B0B0B0" stroke-width="1.8" stroke-linecap="round" stroke-linejoin="round"/>
</svg>
